<svg width="24" height="24" viewBox="0 0 24 24" fill="none" xmlns="http://www.w3.org/2000/svg">
<path d="M10.0093 6.29374C9.25888 6.06688 8.49609 6.60203 8.49609 7.35239V9.83615C8.49609 10.3248 8.83098 10.7552 9.3209 10.9006L19.5287 13.8439C19.9628 13.9719 20.2356 14.0708 20.3349 14.0708C22.8341 13.3669 22.8279 11.5056 22.3256 10.4644C21.7302 9.99902 20.9674 9.59767 19.9318 9.31264L10.0093 6.29955V6.29374Z" fill="#004B6C"/>
<path d="M14.0342 17.8401C14.7846 18.0669 15.5473 17.5318 15.5473 16.7814V14.2976C15.5473 13.809 15.2125 13.3786 14.7225 13.2332L4.51479 10.2957C4.08068 10.1677 3.80781 10.0688 3.70858 10.0688C1.20936 10.7727 1.21556 12.634 1.71789 13.6752C2.31324 14.1406 3.07603 14.5419 4.11168 14.827L14.0342 17.8401V17.8401Z" fill="#004B6C"/>
<path d="M15.8388 0H18.8652C19.8016 0 20.4776 0.587494 20.2171 1.17499L10.4559 23.3369C10.2822 23.7324 9.73029 24 9.10393 24H6.11479C5.17835 24 4.50238 23.4125 4.76285 22.825L14.4807 0.668929C14.6543 0.273388 15.2063 0 15.8326 0H15.8388Z" fill="#003249"/>
<path d="M3.66512 10.0688C4.13023 9.93504 4.64496 9.79544 5.1783 9.6442L12.186 7.64323L12.2233 7.6316L14.9519 6.85215C15.2806 6.75908 15.5039 6.46825 15.5039 6.14251V2.8793C15.5039 2.37905 14.9953 2.02423 14.4992 2.17547L4.06822 5.31071C0.843411 6.24139 0 8.13766 0 10.0688C0 11.3834 0.409302 12.6864 1.67442 13.6752C1.17209 12.634 1.16589 10.7727 3.66512 10.0688Z" fill="#009CD6"/>
<path d="M20.3349 14.065C19.8697 14.1987 19.355 14.3383 18.8217 14.4896L11.8139 16.4906L11.7767 16.5022L9.3271 17.2002C8.83718 17.3398 8.49609 17.7702 8.49609 18.2647V20.7484C8.49609 21.4988 9.25888 22.0339 10.0031 21.8071L19.9318 18.8231C23.1628 17.8924 24 15.9961 24 14.065C24 12.7504 23.5907 11.4474 22.3256 10.4586C22.8279 11.4998 22.8341 13.3611 20.3349 14.065Z" fill="#009CD6"/>
</svg>
